# xmcd
# 
# Track frame offsets:
#     150
#     27337
#     47524
#     62274
#     82915
#     99409
#     122656
#     139359
#     158714
#     168479
#     180752
#     199627
#     214299
#     237120
#     256250
# 
# Disc length: 3622
# 
# Revision: 1
# Processed by: cddbd v1.5.2PL0 Copyright (c) Steve Scherf et al.
# Submitted via: fre:ac v1.0.27
# 
DISCID=ba0e240f
DTITLE=Various Artist - WDVX: 10 Years from 1997 to 2007 (WDVX 89.8FM Knoxville)
DYEAR=2007
DGENRE=Country-influenced Rock
TTITLE0=James McMurtry - Peter Pan
TTITLE1=Robinella - Honey, Honey Bee
TTITLE2=Irene Kelly - Highway
TTITLE3=John Hartford - The Flood of 1997
TTITLE4=Shawn Camp - Hotwired
TTITLE5=David Olney - Little Mustang
TTITLE6=The Hackensaw Boys - Radio
TTITLE7=The Steel Drivers - Angel of the Night
TTITLE8=Darrell Scott - Head South
TTITLE9=Malcolm Holcombe - Marvalene's Kitchen
TTITLE10=Melonie Cannon - Tennesee Roads
TTITLE11=Jason Isbell - Razor Town
TTITLE12=Ray Wylie Hubbard - Snake Farm
TTITLE13=The Everybody Fields - Aeroplane
TTITLE14=The Red Stick Ramblers - Katrina
EXTD=10th Anniversary
EXTT0=
EXTT1=
EXTT2=
EXTT3=
EXTT4=
EXTT5=
EXTT6=
EXTT7=
EXTT8=
EXTT9=
EXTT10=
EXTT11=
EXTT12=
EXTT13=
EXTT14=
PLAYORDER=
